<mxfile host="app.diagrams.net" agent="Mozilla/5.0 (Macintosh; Intel Mac OS X 10_15_7) AppleWebKit/537.36 (KHTML, like Gecko) Chrome/128.0.0.0 Safari/537.36 Edg/128.0.0.0" version="24.7.12">
  <diagram name="Page-1" id="UcyFMRr0MInN382f-GMj">
    <mxGraphModel dx="1084" dy="1323" grid="1" gridSize="10" guides="1" tooltips="1" connect="1" arrows="1" fold="1" page="1" pageScale="1" pageWidth="700" pageHeight="1000" math="0" shadow="0">
      <root>
        <mxCell id="0" />
        <mxCell id="1" parent="0" />
        <mxCell id="iLAKp0XwJyHUJeZn67lu-22" style="rounded=0;orthogonalLoop=1;jettySize=auto;html=1;entryX=0;entryY=0.5;entryDx=0;entryDy=0;endArrow=none;endFill=0;" edge="1" parent="1" source="iLAKp0XwJyHUJeZn67lu-1" target="iLAKp0XwJyHUJeZn67lu-7">
          <mxGeometry relative="1" as="geometry" />
        </mxCell>
        <mxCell id="iLAKp0XwJyHUJeZn67lu-38" style="rounded=0;orthogonalLoop=1;jettySize=auto;html=1;entryX=0;entryY=0.5;entryDx=0;entryDy=0;endArrow=none;endFill=0;" edge="1" parent="1" source="iLAKp0XwJyHUJeZn67lu-1" target="iLAKp0XwJyHUJeZn67lu-8">
          <mxGeometry relative="1" as="geometry" />
        </mxCell>
        <mxCell id="iLAKp0XwJyHUJeZn67lu-39" style="rounded=0;orthogonalLoop=1;jettySize=auto;html=1;endArrow=none;endFill=0;" edge="1" parent="1" source="iLAKp0XwJyHUJeZn67lu-1" target="iLAKp0XwJyHUJeZn67lu-9">
          <mxGeometry relative="1" as="geometry" />
        </mxCell>
        <mxCell id="iLAKp0XwJyHUJeZn67lu-40" style="rounded=0;orthogonalLoop=1;jettySize=auto;html=1;endArrow=none;endFill=0;" edge="1" parent="1" source="iLAKp0XwJyHUJeZn67lu-1" target="iLAKp0XwJyHUJeZn67lu-34">
          <mxGeometry relative="1" as="geometry" />
        </mxCell>
        <mxCell id="iLAKp0XwJyHUJeZn67lu-41" style="rounded=0;orthogonalLoop=1;jettySize=auto;html=1;entryX=0;entryY=0.5;entryDx=0;entryDy=0;endArrow=none;endFill=0;" edge="1" parent="1" source="iLAKp0XwJyHUJeZn67lu-1" target="iLAKp0XwJyHUJeZn67lu-35">
          <mxGeometry relative="1" as="geometry" />
        </mxCell>
        <mxCell id="iLAKp0XwJyHUJeZn67lu-1" value="Guest" style="shape=umlActor;verticalLabelPosition=bottom;verticalAlign=top;html=1;outlineConnect=0;horizontal=1;" vertex="1" parent="1">
          <mxGeometry x="190" y="430" width="50" height="80" as="geometry" />
        </mxCell>
        <mxCell id="iLAKp0XwJyHUJeZn67lu-20" style="rounded=0;orthogonalLoop=1;jettySize=auto;html=1;entryX=0;entryY=0.5;entryDx=0;entryDy=0;endArrow=none;endFill=0;" edge="1" parent="1" source="iLAKp0XwJyHUJeZn67lu-6" target="iLAKp0XwJyHUJeZn67lu-11">
          <mxGeometry relative="1" as="geometry" />
        </mxCell>
        <mxCell id="iLAKp0XwJyHUJeZn67lu-21" style="rounded=0;orthogonalLoop=1;jettySize=auto;html=1;endArrow=none;endFill=0;" edge="1" parent="1" source="iLAKp0XwJyHUJeZn67lu-6" target="iLAKp0XwJyHUJeZn67lu-13">
          <mxGeometry relative="1" as="geometry" />
        </mxCell>
        <mxCell id="iLAKp0XwJyHUJeZn67lu-31" style="rounded=0;orthogonalLoop=1;jettySize=auto;html=1;entryX=0;entryY=0.5;entryDx=0;entryDy=0;endArrow=none;endFill=0;" edge="1" parent="1" source="iLAKp0XwJyHUJeZn67lu-6" target="iLAKp0XwJyHUJeZn67lu-24">
          <mxGeometry relative="1" as="geometry" />
        </mxCell>
        <mxCell id="iLAKp0XwJyHUJeZn67lu-42" style="edgeStyle=orthogonalEdgeStyle;rounded=0;orthogonalLoop=1;jettySize=auto;html=1;endArrow=block;endFill=0;" edge="1" parent="1" source="iLAKp0XwJyHUJeZn67lu-6">
          <mxGeometry relative="1" as="geometry">
            <mxPoint x="215" y="540" as="targetPoint" />
            <Array as="points">
              <mxPoint x="215" y="550" />
            </Array>
          </mxGeometry>
        </mxCell>
        <mxCell id="iLAKp0XwJyHUJeZn67lu-44" style="rounded=0;orthogonalLoop=1;jettySize=auto;html=1;entryX=0;entryY=0.5;entryDx=0;entryDy=0;endArrow=none;endFill=0;" edge="1" parent="1" source="iLAKp0XwJyHUJeZn67lu-6" target="iLAKp0XwJyHUJeZn67lu-43">
          <mxGeometry relative="1" as="geometry" />
        </mxCell>
        <mxCell id="iLAKp0XwJyHUJeZn67lu-6" value="Member" style="shape=umlActor;verticalLabelPosition=bottom;verticalAlign=top;html=1;outlineConnect=0;" vertex="1" parent="1">
          <mxGeometry x="190" y="770" width="50" height="80" as="geometry" />
        </mxCell>
        <mxCell id="iLAKp0XwJyHUJeZn67lu-7" value="Sign up" style="ellipse;whiteSpace=wrap;html=1;" vertex="1" parent="1">
          <mxGeometry x="440" y="310" width="160" height="40" as="geometry" />
        </mxCell>
        <mxCell id="iLAKp0XwJyHUJeZn67lu-8" value="View the introduction page" style="ellipse;whiteSpace=wrap;html=1;" vertex="1" parent="1">
          <mxGeometry x="440" y="370" width="160" height="40" as="geometry" />
        </mxCell>
        <mxCell id="iLAKp0XwJyHUJeZn67lu-9" value="Get Koi Fish Consultation" style="ellipse;whiteSpace=wrap;html=1;" vertex="1" parent="1">
          <mxGeometry x="440" y="425" width="160" height="45" as="geometry" />
        </mxCell>
        <mxCell id="iLAKp0XwJyHUJeZn67lu-11" value="Log out" style="ellipse;whiteSpace=wrap;html=1;" vertex="1" parent="1">
          <mxGeometry x="320" y="740" width="160" height="40" as="geometry" />
        </mxCell>
        <mxCell id="iLAKp0XwJyHUJeZn67lu-13" value="Manage Profile" style="ellipse;whiteSpace=wrap;html=1;" vertex="1" parent="1">
          <mxGeometry x="320" y="800" width="160" height="40" as="geometry" />
        </mxCell>
        <mxCell id="iLAKp0XwJyHUJeZn67lu-17" style="rounded=0;orthogonalLoop=1;jettySize=auto;html=1;entryX=1;entryY=1;entryDx=0;entryDy=0;endArrow=block;endFill=0;" edge="1" parent="1" source="iLAKp0XwJyHUJeZn67lu-14" target="iLAKp0XwJyHUJeZn67lu-13">
          <mxGeometry relative="1" as="geometry" />
        </mxCell>
        <mxCell id="iLAKp0XwJyHUJeZn67lu-14" value="Update Profile" style="ellipse;whiteSpace=wrap;html=1;" vertex="1" parent="1">
          <mxGeometry x="540" y="840" width="160" height="50" as="geometry" />
        </mxCell>
        <mxCell id="iLAKp0XwJyHUJeZn67lu-16" style="rounded=0;orthogonalLoop=1;jettySize=auto;html=1;entryX=1;entryY=0;entryDx=0;entryDy=0;endArrow=block;endFill=0;" edge="1" parent="1" source="iLAKp0XwJyHUJeZn67lu-15" target="iLAKp0XwJyHUJeZn67lu-13">
          <mxGeometry relative="1" as="geometry" />
        </mxCell>
        <mxCell id="iLAKp0XwJyHUJeZn67lu-15" value="Get Profile" style="ellipse;whiteSpace=wrap;html=1;" vertex="1" parent="1">
          <mxGeometry x="540" y="750" width="160" height="50" as="geometry" />
        </mxCell>
        <mxCell id="iLAKp0XwJyHUJeZn67lu-26" style="rounded=0;orthogonalLoop=1;jettySize=auto;html=1;dashed=1;endArrow=openThin;endFill=0;" edge="1" parent="1" source="iLAKp0XwJyHUJeZn67lu-24">
          <mxGeometry relative="1" as="geometry">
            <mxPoint x="600" y="650" as="targetPoint" />
          </mxGeometry>
        </mxCell>
        <mxCell id="iLAKp0XwJyHUJeZn67lu-27" value="&amp;lt;&amp;lt;include&amp;gt;&amp;gt;" style="edgeLabel;html=1;align=center;verticalAlign=middle;resizable=0;points=[];" vertex="1" connectable="0" parent="iLAKp0XwJyHUJeZn67lu-26">
          <mxGeometry x="0.0502" y="4" relative="1" as="geometry">
            <mxPoint as="offset" />
          </mxGeometry>
        </mxCell>
        <mxCell id="iLAKp0XwJyHUJeZn67lu-24" value="Log in" style="ellipse;whiteSpace=wrap;html=1;" vertex="1" parent="1">
          <mxGeometry x="320" y="680" width="160" height="40" as="geometry" />
        </mxCell>
        <mxCell id="iLAKp0XwJyHUJeZn67lu-25" value="Verify Account" style="ellipse;whiteSpace=wrap;html=1;" vertex="1" parent="1">
          <mxGeometry x="600" y="630" width="160" height="40" as="geometry" />
        </mxCell>
        <mxCell id="iLAKp0XwJyHUJeZn67lu-29" style="edgeStyle=orthogonalEdgeStyle;rounded=0;orthogonalLoop=1;jettySize=auto;html=1;dashed=1;endArrow=open;endFill=0;" edge="1" parent="1" source="iLAKp0XwJyHUJeZn67lu-28" target="iLAKp0XwJyHUJeZn67lu-24">
          <mxGeometry relative="1" as="geometry" />
        </mxCell>
        <mxCell id="iLAKp0XwJyHUJeZn67lu-30" value="&amp;lt;&amp;lt;extend&amp;gt;&amp;gt;" style="edgeLabel;html=1;align=center;verticalAlign=middle;resizable=0;points=[];" vertex="1" connectable="0" parent="iLAKp0XwJyHUJeZn67lu-29">
          <mxGeometry x="-0.05" y="-1" relative="1" as="geometry">
            <mxPoint as="offset" />
          </mxGeometry>
        </mxCell>
        <mxCell id="iLAKp0XwJyHUJeZn67lu-28" value="Reset password" style="ellipse;whiteSpace=wrap;html=1;" vertex="1" parent="1">
          <mxGeometry x="600" y="680" width="160" height="40" as="geometry" />
        </mxCell>
        <mxCell id="iLAKp0XwJyHUJeZn67lu-34" value="Get Pond Consultation" style="ellipse;whiteSpace=wrap;html=1;" vertex="1" parent="1">
          <mxGeometry x="440" y="480" width="160" height="45" as="geometry" />
        </mxCell>
        <mxCell id="iLAKp0XwJyHUJeZn67lu-35" value="Search Compatibility Information" style="ellipse;whiteSpace=wrap;html=1;" vertex="1" parent="1">
          <mxGeometry x="440" y="540" width="160" height="45" as="geometry" />
        </mxCell>
        <mxCell id="iLAKp0XwJyHUJeZn67lu-43" value="Post Management" style="ellipse;whiteSpace=wrap;html=1;" vertex="1" parent="1">
          <mxGeometry x="320" y="900" width="160" height="40" as="geometry" />
        </mxCell>
        <mxCell id="iLAKp0XwJyHUJeZn67lu-48" style="rounded=0;orthogonalLoop=1;jettySize=auto;html=1;entryX=1;entryY=1;entryDx=0;entryDy=0;endArrow=block;endFill=0;" edge="1" parent="1" source="iLAKp0XwJyHUJeZn67lu-45" target="iLAKp0XwJyHUJeZn67lu-43">
          <mxGeometry relative="1" as="geometry" />
        </mxCell>
        <mxCell id="iLAKp0XwJyHUJeZn67lu-45" value="Post Advertisement" style="ellipse;whiteSpace=wrap;html=1;" vertex="1" parent="1">
          <mxGeometry x="510" y="960" width="160" height="40" as="geometry" />
        </mxCell>
        <mxCell id="iLAKp0XwJyHUJeZn67lu-47" style="rounded=0;orthogonalLoop=1;jettySize=auto;html=1;entryX=0.5;entryY=1;entryDx=0;entryDy=0;endArrow=block;endFill=0;" edge="1" parent="1" source="iLAKp0XwJyHUJeZn67lu-46" target="iLAKp0XwJyHUJeZn67lu-43">
          <mxGeometry relative="1" as="geometry" />
        </mxCell>
        <mxCell id="iLAKp0XwJyHUJeZn67lu-46" value="View Advertisement&amp;nbsp;prices" style="ellipse;whiteSpace=wrap;html=1;" vertex="1" parent="1">
          <mxGeometry x="380" y="1010" width="160" height="40" as="geometry" />
        </mxCell>
        <mxCell id="iLAKp0XwJyHUJeZn67lu-49" value=" inputs User&#39;s birth year and gender" style="ellipse;whiteSpace=wrap;html=1;" vertex="1" parent="1">
          <mxGeometry x="700" y="350" width="140" height="50" as="geometry" />
        </mxCell>
        <mxCell id="iLAKp0XwJyHUJeZn67lu-50" value="inputs User&#39;s birth year and gender" style="ellipse;whiteSpace=wrap;html=1;" vertex="1" parent="1">
          <mxGeometry x="810" y="435" width="140" height="70" as="geometry" />
        </mxCell>
        <mxCell id="iLAKp0XwJyHUJeZn67lu-51" value="inputs details of User&#39;s current pond and Koi fish." style="ellipse;whiteSpace=wrap;html=1;" vertex="1" parent="1">
          <mxGeometry x="700" y="520" width="140" height="55" as="geometry" />
        </mxCell>
      </root>
    </mxGraphModel>
  </diagram>
</mxfile>
